<svg viewBox="0 0 200 150" xmlns="http://www.w3.org/2000/svg">
  <path fill="#37a7b8" d="M 20 50 L 100 105 L 180 50 L 180 120 C 180 131 171 140 160 140 L 40 140 C 29 140 20 131 20 120 Z" />
  <path fill="#FFFFFF" d="M 40 10 C 29 10 20 19 20 30 L 20 40 L 100 95 L 180 40 L 180 30 C 180 19 171 10 160 10 Z" />
  <path fill="none" stroke="#000000" stroke-width="18" stroke-linejoin="round" stroke-linecap="round" d="M 20 30 C 20 19 29 10 40 10 L 160 10 C 171 10 180 19 180 30 L 180 120 C 180 131 171 140 160 140 L 40 140 C 29 140 20 131 20 120 Z" />
  <path fill="none" stroke="#000000" stroke-width="18" stroke-linejoin="round" stroke-linecap="round" d="M 20 40 L 100 95 L 180 40" />
</svg>
